<svg xmlns="http://www.w3.org/2000/svg" width="300" height="350" viewBox="0 0 300 350">
  <defs>
    <linearGradient id="jacket" x1="0%" y1="0%" x2="100%" y2="100%">
      <stop offset="0%" style="stop-color:#5d8aa8"/>
      <stop offset="100%" style="stop-color:#4a7a98"/>
    </linearGradient>
  </defs>
  <rect fill="#f5f0e8" width="300" height="350"/>
  <text x="150" y="25" text-anchor="middle" fill="#333" font-size="13" font-weight="bold">失踪当天衣着参考</text>
  <rect x="75" y="45" width="150" height="160" fill="url(#jacket)" rx="4"/>
  <rect x="55" y="65" width="35" height="100" fill="url(#jacket)" rx="2"/>
  <rect x="210" y="65" width="35" height="100" fill="url(#jacket)" rx="2"/>
  <line x1="75" y1="100" x2="225" y2="100" stroke="#4d6a78" stroke-width="2"/>
  <rect x="85" y="115" width="45" height="6" fill="#c0c0c0" rx="2"/>
  <rect x="85" y="128" width="45" height="6" fill="#c0c0c0" rx="2"/>
  <rect x="85" y="141" width="45" height="6" fill="#c0c0c0" rx="2"/>
  <circle cx="130" cy="80" r="4" fill="#8b7355"/>
  <text x="150" y="225" text-anchor="middle" fill="#555" font-size="11">浅蓝色牛仔外套</text>
  <rect x="60" y="250" width="180" height="85" fill="#2a2a2a" rx="2"/>
  <text x="150" y="280" text-anchor="middle" fill="#ccc" font-size="11">深色休闲长裤</text>
  <rect x="100" y="295" width="100" height="40" fill="#1a1a1a" rx="2"/>
  <text x="150" y="320" text-anchor="middle" fill="#888" font-size="10">黑色双肩背包</text>
</svg>